<svg width="141" height="127" viewBox="0 0 141 127" fill="none" xmlns="http://www.w3.org/2000/svg">
<path d="M92.6589 85.1282L120.738 113.222L107.563 126.404L79.484 98.3103C77.0766 95.9016 73.9032 94.5877 70.4891 94.5877C67.075 94.5877 63.9017 95.9016 61.4943 98.3103L33.4155 126.404L20.2406 113.222L48.3194 85.1282H92.637H92.6589Z" fill="#05472A"/>
<path d="M97.3422 77.0262L135.685 87.296L140.5 69.2747L102.157 59.0049C98.8742 58.129 96.1385 56.0269 94.4315 53.0708C92.7244 50.1365 92.2867 46.6987 93.1621 43.4141L103.426 5.05029L85.4148 0.23291L75.1506 38.5967L97.3203 77.0043L97.3422 77.0262Z" fill="#05472A"/>
<path d="M43.6577 77.0262L5.31476 87.296L0.5 69.2747L38.843 59.0049C42.1258 58.129 44.8614 56.0269 46.5685 53.0708C48.2755 50.1365 48.7132 46.6987 47.8378 43.4141L37.5736 5.05029L55.5852 0.23291L65.8494 38.5967L43.6796 77.0043L43.6577 77.0262Z" fill="#05472A"/>
</svg>
