<svg width="23" height="23" viewBox="0 0 23 23" fill="none" xmlns="http://www.w3.org/2000/svg">
<path d="M17.7466 7.69009H15.7194C15.4836 7.69009 15.2587 7.58848 15.1019 7.4119L14.2801 6.48363C14.1578 6.34553 13.9812 6.26562 13.7968 6.26562C13.6123 6.26562 13.4357 6.34454 13.3134 6.48363L12.6081 7.2807C12.3772 7.54113 12.0458 7.69107 11.6976 7.69107H0.603719C0.288049 8.59172 0.081877 9.54268 0 10.5301H10.4734C10.6578 10.5301 10.8334 10.4552 10.9607 10.322L11.9363 9.30494C12.0576 9.17768 12.2263 9.10567 12.4019 9.10567H12.4423C12.6268 9.10567 12.8034 9.18459 12.9257 9.32368L13.7474 10.252C13.9043 10.4285 14.1282 10.5301 14.365 10.5301H22.9137C22.8319 9.54268 22.6257 8.59172 22.31 7.69107H17.7466V7.69009Z" fill="white"/>
<path d="M6.34039 16.5021C6.52486 16.5021 6.70045 16.4271 6.82771 16.2939L7.80333 15.2769C7.92466 15.1496 8.09335 15.0776 8.26894 15.0776H8.30939C8.49386 15.0776 8.67043 15.1565 8.79276 15.2956L9.61449 16.2239C9.77134 16.4005 9.99527 16.5021 10.232 16.5021H21.8171C22.2512 15.6054 22.5688 14.6426 22.7582 13.6354H11.6387C11.403 13.6354 11.178 13.5338 11.0212 13.3572L10.1995 12.4289C10.0771 12.2908 9.90056 12.2109 9.71609 12.2109C9.53162 12.2109 9.35505 12.2899 9.23272 12.4289L8.52739 13.226C8.29656 13.4864 7.96511 13.6364 7.61688 13.6364H0.160156C0.349558 14.6446 0.667206 15.6064 1.10125 16.5031H6.34039V16.5021Z" fill="white"/>
<path d="M14.561 4.593C14.7454 4.593 14.921 4.51803 15.0483 4.38486L16.0239 3.36781C16.1452 3.24055 16.3139 3.16854 16.4895 3.16854H16.53C16.7144 3.16854 16.891 3.24746 17.0133 3.38655L17.8351 4.31482C17.9919 4.4914 18.2158 4.593 18.4526 4.593H20.6554C18.5572 1.80425 15.2199 0 11.4615 0C7.70303 0 4.3658 1.80425 2.26758 4.593H14.562H14.561Z" fill="white"/>
<path d="M10.1327 19.3385H7.11997C6.8842 19.3385 6.65929 19.2369 6.50244 19.0603L5.68071 18.1321C5.55839 17.994 5.38181 17.9141 5.19734 17.9141C5.01287 17.9141 4.8363 17.993 4.71397 18.1321L4.00865 18.9291C3.77781 19.1896 3.44636 19.3395 3.09814 19.3395H3.05078C5.14999 21.5887 8.13801 22.9964 11.4575 22.9964C14.777 22.9964 17.765 21.5887 19.8642 19.3395H10.1327V19.3385Z" fill="white"/>
</svg>
