<svg width="40" height="40" viewBox="0 0 40 40" fill="none" xmlns="http://www.w3.org/2000/svg">
<path d="M39.3998 24.84C37.4447 32.6898 30.9533 38.5887 22.9528 39.786C14.9524 40.9833 7.01849 37.2432 2.85098 30.3097C-1.31653 23.3763 -0.896879 14.615 3.91424 8.11163C8.72536 1.60825 16.9804 -1.35647 24.8298 0.600024C35.5463 3.27115 42.0691 14.1231 39.3998 24.84Z" fill="#5D6368"/>
<path d="M28.28 16.72C28.67 14.09 26.73 12.72 24.07 11.72L24.93 8.16004L22.83 7.62004L22 11.1L20.32 10.69L21.16 7.21004L19.06 6.67004L18.2 10.22L16.86 9.90004L14 9.14004L13.44 11.45C13.44 11.45 15 11.82 14.97 11.85C15.5877 11.9332 16.0293 12.4896 15.97 13.11L14.97 17.16L15.18 17.23L14.96 17.18L13.59 22.85C13.5329 23.056 13.3928 23.2291 13.2032 23.3277C13.0135 23.4263 12.7914 23.4416 12.59 23.37L11 23L10 25.48L12.74 26.18L14.24 26.58L13.36 30.18L15.47 30.72L16.33 27.15L18 27.6L17.14 31.15L19.25 31.69L20.12 28.09C23.7 28.79 26.4 28.51 27.53 25.17C28.45 22.48 27.53 20.93 25.6 19.92C27.1181 19.5886 28.2201 18.2727 28.28 16.72ZM23.48 23.66C22.83 26.35 18.48 24.89 17.01 24.53L18.16 19.76C19.59 20.13 24.16 20.85 23.48 23.66ZM24.13 16.66C23.54 19.1 19.88 17.86 18.69 17.56L19.69 13.23C20.88 13.54 24.69 14.11 24.08 16.66H24.13Z" fill="white"/>
</svg>
