<svg width="26" height="26" viewBox="0 0 26 26" fill="none" xmlns="http://www.w3.org/2000/svg" class="bl-size-5"><path d="M26 13c0-7.18-5.82-13-13-13S0 5.82 0 13s5.82 13 13 13 13-5.82 13-13Z" fill="#E36E1B"></path><path d="M4.827 5.782v3.101c.688-.37 1.37-.325 2.047-.401V5.417c-.743 0-1.359.006-2.047.365ZM10.828 6.125a13.462 13.462 0 0 0-1.954-.578v3.03c.656.121 1.307.317 1.954.543V6.125Z" fill="#fff"></path><path d="M8.874 11.605V8.576a6.778 6.778 0 0 0-2-.094v3.065a6.757 6.757 0 0 1 2 .058ZM4.827 11.985v3.1c.688-.395 1.37-.374 2.047-.473v-3.065c-.7.059-1.359.054-2.047.438ZM8.874 11.605v3.03c.656.098 1.307.272 1.954.475v-2.995c-.646-.215-1.298-.4-1.954-.51ZM6.874 14.612v3.065a6.76 6.76 0 0 1 2-.012v-3.03a6.759 6.759 0 0 0-2-.023ZM19.904 13.294c.76-.648 1.189-1.69 1.189-2.763 0-1.661-1-2.341-3.08-2.552V6.53a12.94 12.94 0 0 1-1.336-.144v1.446a18.27 18.27 0 0 1-1.26-.236V6.14a29.035 29.035 0 0 1-1.378-.358v1.47a59.57 59.57 0 0 1-1.3-.377v2.961c-.633-.238-1.27-.492-1.91-.716v2.995c.64.213 1.277.455 1.91.683v2.96c-.633-.215-1.27-.446-1.91-.648v2.995c.64.19 1.277.41 1.91.615.435.1.868.196 1.3.284v1.47c.462.09.921.17 1.379.235v-1.457c.422.063.841.114 1.26.147v1.445c.447.031.892.042 1.334.026v-1.436c2.308-.13 3.507-1.991 3.507-3.848 0-1.37-.615-2.035-1.615-2.292ZM15.42 9.98c.421.087.84.16 1.256.217a14.072 14.072 0 0 0 .66.075l.026.004.092.013.007.001.097.018.016.004c.03.006.06.012.088.02h.003c.032.008.063.017.092.026a1.485 1.485 0 0 1 .254.101c.35.181.528.49.528.948 0 .466-.178.797-.528.965a1.155 1.155 0 0 1-.248.084c-.002 0-.004 0-.006.002-.03.006-.06.012-.092.016h-.003a1.424 1.424 0 0 1-.088.01l-.017.002a1.583 1.583 0 0 1-.097.005h-.006a2.61 2.61 0 0 1-.222-.006c-.186-.015-.371-.034-.557-.056-.416-.05-.835-.12-1.255-.2V9.978Zm2.59 7.087a1.866 1.866 0 0 1-.169.02l-.03.002a1.652 1.652 0 0 1-.063.002l-.028.001h-.093a13.304 13.304 0 0 1-.951-.055 17.76 17.76 0 0 1-1.256-.165v-2.364c.421.076.84.138 1.256.183a13.151 13.151 0 0 0 1.044.073l.028.002.064.005.029.002.062.007.025.002.083.012c.636.098.968.424.968 1.087 0 .657-.332 1.076-.968 1.186Z" fill="#fff"></path></svg>