<svg width="32" height="32" viewBox="0 0 373 374" fill="none" xmlns="http://www.w3.org/2000/svg">
<path fill-rule="evenodd" clip-rule="evenodd" d="M372.093 186.233C372.093 288.983 288.797 372.279 186.047 372.279C83.2959 372.279 0 288.983 0 186.233C0 83.4819 83.2959 0.186035 186.047 0.186035C288.797 0.186035 372.093 83.4819 372.093 186.233ZM119.675 64.1841H176.401C178.353 64.1841 179.936 65.7667 179.936 67.719V124.445C179.936 126.397 178.353 127.979 176.401 127.979H119.675C117.723 127.979 116.141 126.397 116.141 124.445V67.719C116.141 65.7667 117.723 64.1841 119.675 64.1841ZM195.874 147.437V204.163C195.874 206.115 197.457 207.698 199.409 207.698H256.135C258.087 207.698 259.67 206.115 259.67 204.163V147.437C259.67 145.485 258.087 143.903 256.135 143.903H199.409C197.457 143.903 195.874 145.485 195.874 147.437ZM116.141 147.456V204.181C116.141 206.133 117.723 207.716 119.676 207.716H176.401C178.353 207.716 179.936 206.133 179.936 204.181V147.456C179.936 145.503 178.353 143.921 176.401 143.921H119.676C117.723 143.921 116.141 145.503 116.141 147.456ZM116.162 227.175V283.901C116.162 285.853 117.745 287.436 119.697 287.436H176.423C178.375 287.436 179.958 285.853 179.958 283.901V227.175C179.958 225.223 178.375 223.64 176.423 223.64H119.697C117.745 223.64 116.162 225.223 116.162 227.175ZM195.874 283.906V227.181C195.874 225.229 197.457 223.646 199.409 223.646H256.135C258.087 223.646 259.67 225.229 259.67 227.181V283.906C259.67 285.859 258.087 287.441 256.135 287.441H199.409C197.457 287.441 195.874 285.859 195.874 283.906Z" fill="#F25D00"/>
</svg>
