<svg xmlns="http://www.w3.org/2000/svg" xml:space="preserve" id="Layer_1" x="0" y="0" style="enable-background:new 0 0 2500 2500" version="1.1" viewBox="0 0 2500 2500"><style>.st1{fill:#fff}</style><g id="Layer_x0020_1"><g id="_1996065010912"><path d="M0 0h2500v2500H0z" style="fill-rule:evenodd;clip-rule:evenodd;fill:#ff1256"/><path d="m942 745 272-168c24-14 24-42 7-59L994 298c-4-4-12-4-16 0l-22 22c-28 28-27 72 0 100l89 82c15 15 12 40-6 51l-106 65c-33 20-43 64-23 97l16 26c3 5 10 7 16 4zM1204 1645c22-97-4-198-71-272l-172-195c-96-108-72-277 50-354l281-180c18-12 42-9 58 5 103 95 461 436 445 789 0 0 0 548-539 753-79 30-160-42-139-125 75-295 88-423 88-423l-1 2zm70-844c-43 27-126 80-197 125-48 30-57 95-20 138l180 208c103 113 144 270 109 419l-30 132c-13 57 55 97 99 59 189-163 455-556-99-1077-11-11-28-12-42-4z" class="st1"/></g></g></svg>