<svg width="131" height="126" viewBox="0 0 131 126" fill="none" xmlns="http://www.w3.org/2000/svg">
<path fill-rule="evenodd" clip-rule="evenodd" d="M65.8782 16.7174L24.9516 39.6912V85.6387L65.8782 108.612L106.805 85.6387V39.6912L65.8782 16.7174ZM67.597 5.13931C66.5334 4.54227 65.223 4.54227 64.1594 5.13931L15.4981 32.4549C14.4345 33.0519 13.7793 34.1553 13.7793 35.3494V89.9805C13.7793 91.1746 14.4345 92.278 15.4981 92.875L64.1594 120.191C65.223 120.788 66.5334 120.788 67.597 120.191L116.258 92.875C117.322 92.278 117.977 91.1746 117.977 89.9805V35.3494C117.977 34.1553 117.322 33.0519 116.258 32.4549L67.597 5.13931Z" fill="#FD8D37"/>
<path d="M65.8782 33.3597L39.7753 48.0123V77.3175L65.7063 91.8737C65.8127 91.9334 65.8782 92.0437 65.8782 92.1631L65.8782 97.1805C65.8782 97.4378 65.5917 97.5986 65.3625 97.4699L35.908 80.9357C35.1103 80.4879 34.6189 79.6604 34.6189 78.7648V46.5651C34.6189 45.6695 35.1103 44.8419 35.908 44.3942L64.5891 28.2943C65.3868 27.8465 66.3696 27.8465 67.1673 28.2943L96.7395 44.8343C96.9669 44.9615 96.969 45.2798 96.7434 45.4099C94.9982 46.4162 94.1045 46.864 92.1521 47.9198C92.0464 47.9769 91.917 47.9763 91.8122 47.9175L65.8782 33.3597Z" fill="#FD8D37"/>
<path d="M70.1753 63.2835C70.1753 63.1599 70.2453 63.0465 70.3575 62.9884L96.3117 49.5572C96.5406 49.4387 96.8169 49.6 96.8169 49.8522V82.5264C96.8169 82.6455 96.7517 82.7556 96.6458 82.8154L70.6916 97.4677C70.4625 97.5971 70.1753 97.4363 70.1753 97.1786V63.2835Z" fill="#FD8D37"/>
</svg>
