<svg width="380" height="380" viewBox="0 0 380 380" fill="none" xmlns="http://www.w3.org/2000/svg">
<path d="M224.63 173.22C219.9 173.22 215.16 171.41 211.55 167.8C204.32 160.58 204.32 148.86 211.55 141.64L259.39 93.8C266.61 86.58 278.33 86.58 285.55 93.8C292.78 101.02 292.78 112.74 285.55 119.96L237.71 167.8C234.1 171.41 229.36 173.22 224.63 173.22Z" fill="#38FF9C"/>
<path d="M189.95 379.89C85.21 379.89 0 294.68 0 189.95C0 85.22 85.21 0 189.95 0C294.69 0 379.9 85.21 379.9 189.95C379.9 294.69 294.69 379.9 189.95 379.9V379.89ZM189.95 37C105.62 37 37 105.61 37 189.95C37 274.29 105.61 342.9 189.95 342.9C274.29 342.9 342.9 274.29 342.9 189.95C342.9 105.61 274.28 37 189.95 37Z" fill="#38FF9C"/>
<path d="M107.42 290.06C102.69 290.06 97.9499 288.25 94.3399 284.64C87.1199 277.42 87.1099 265.7 94.3399 258.48L142.18 210.64C149.4 203.42 161.12 203.41 168.34 210.64C175.56 217.87 175.57 229.58 168.34 236.8L120.5 284.64C116.89 288.25 112.15 290.06 107.42 290.06Z" fill="#38FF9C"/>
<path d="M185.81 123.35C152.74 125.72 126 152.32 123.76 185.41C123.64 187.2 122.86 188.89 121.58 190.16L94.71 217.07C93.19 218.6 90.56 217.91 90.01 215.82C87.83 207.49 86.48 198.55 86.48 189.66C86.48 132.46 133.01 85.9299 190.21 85.9299C199.53 85.9299 208.57 87.1699 217.17 89.4799C218.91 89.9499 219.48 92.1299 218.21 93.4099L190.44 121.2C189.2 122.44 187.56 123.21 185.81 123.34V123.35Z" fill="#38FF9C"/>
<path d="M258.05 188.99L285.84 161.22C287.11 159.95 289.3 160.52 289.77 162.26C292.09 170.86 293.32 179.9 293.32 189.22C293.32 246.42 246.79 292.95 189.59 292.95C180.71 292.95 171.77 291.6 163.43 289.42C161.34 288.87 160.66 286.25 162.18 284.72L189.09 257.85C190.36 256.58 192.05 255.8 193.84 255.67C226.94 253.43 253.53 226.69 255.9 193.62C256.03 191.87 256.8 190.23 258.04 188.99H258.05Z" fill="#38FF9C"/>
</svg>
