<svg width="56" height="55" viewBox="0 0 56 55" fill="none" xmlns="http://www.w3.org/2000/svg">
<path d="M27.9311 54.9505C43.357 54.9505 55.8622 42.6494 55.8622 27.4753C55.8622 12.3011 43.357 0 27.9311 0C12.5052 0 0 12.3011 0 27.4753C0 42.6494 12.5052 54.9505 27.9311 54.9505Z" fill="white"/>
<path d="M30.0711 21.6993C30.11 19.3207 31.8143 17.3149 34.1431 16.8649V12.2104C31.7623 12.4547 29.5506 13.5605 27.9243 15.3348L27.7422 15.5406L27.5601 15.3348C25.9338 13.5476 23.7351 12.4547 21.3413 12.2104V16.8649C23.6701 17.3149 25.3744 19.3207 25.4134 21.6865V33.6312C25.3744 36.0099 23.6701 38.0156 21.3413 38.4657V43.1202C23.7221 42.8759 25.9338 41.7702 27.5601 39.9958L27.7422 39.79L27.9243 39.9958C29.5506 41.7829 31.7493 42.8759 34.1431 43.1202V38.4657C31.8143 38.0156 30.11 36.0099 30.0711 33.6441V21.6993Z" fill="black"/>
</svg>
