<svg width="618" height="618" viewBox="0 0 618 618" fill="none" xmlns="http://www.w3.org/2000/svg">
<mask id="mask0_76_12" style="mask-type:luminance" maskUnits="userSpaceOnUse" x="0" y="0" width="618" height="618">
<path d="M617.5 0.698975H0.5V617.699H617.5V0.698975Z" fill="white"/>
</mask>
<g mask="url(#mask0_76_12)">
<path d="M373.785 8.104L371.934 11.806C436.102 39.571 472.505 96.952 472.505 159.886C472.505 227.756 428.081 289.456 341.701 341.901L327.51 350.539C262.725 390.027 230.024 434.451 230.024 488.13C230.024 557.234 284.32 607.827 358.977 607.827C478.675 607.827 617.5 480.109 617.5 309.817C617.5 282.052 613.798 254.904 607.011 228.99L602.692 230.224C604.543 244.415 605.16 254.904 605.16 264.776C605.16 365.347 548.396 451.727 453.378 509.108L444.123 514.661C423.762 526.384 406.486 533.171 389.21 533.171C366.381 533.171 349.105 518.363 349.105 496.768C349.105 478.258 361.445 459.748 401.55 436.302L413.273 429.515C502.121 377.687 551.481 304.881 551.481 224.054C551.481 121.632 474.973 37.103 373.785 8.104ZM244.215 610.912L246.066 607.21C181.898 579.446 145.495 522.065 145.495 459.131C145.495 391.261 189.919 329.561 276.299 277.116L290.49 268.478C355.275 228.99 387.976 184.566 387.976 130.887C387.976 61.783 333.68 11.189 259.023 11.189C139.325 11.189 0.5 138.908 0.5 309.2C0.5 336.965 4.20201 364.113 10.989 390.027L15.308 388.793C13.457 374.602 12.84 364.113 12.84 354.241C12.84 253.67 69.604 167.29 164.622 109.909L173.877 104.356C194.238 92.633 211.514 85.846 228.79 85.846C251.619 85.846 268.895 100.654 268.895 122.249C268.895 140.759 256.555 159.269 216.45 182.715L204.727 189.502C115.879 241.33 66.519 314.136 66.519 394.963C66.519 497.385 143.027 581.914 244.215 610.912Z" fill="#4D3DFF"/>
</g>
</svg>
