<svg width="85" height="81" viewBox="0 0 85 81" fill="none" xmlns="http://www.w3.org/2000/svg">
<path d="M61.1279 9.71227C63.8017 9.71227 65.9693 7.53811 65.9693 4.85614C65.9693 2.17417 63.8017 0 61.1279 0C58.4542 0 56.2866 2.17417 56.2866 4.85614C56.2866 7.53811 58.4542 9.71227 61.1279 9.71227Z" fill="#131F37"/>
<path d="M66.5723 78.3115C69.2461 78.3115 71.4136 76.1374 71.4136 73.4554C71.4136 70.7734 69.2461 68.5992 66.5723 68.5992C63.8985 68.5992 61.731 70.7734 61.731 73.4554C61.731 76.1374 63.8985 78.3115 66.5723 78.3115Z" fill="#131F37"/>
<path d="M62.5101 21.8526C64.7537 21.8526 66.5725 20.0282 66.5725 17.7778C66.5725 15.5273 64.7537 13.703 62.5101 13.703C60.2665 13.703 58.4478 15.5273 58.4478 17.7778C58.4478 20.0282 60.2665 21.8526 62.5101 21.8526Z" fill="#131F37"/>
<path d="M73.3148 23.4153C75.5584 23.4153 77.3771 21.591 77.3771 19.3405C77.3771 17.0901 75.5584 15.2657 73.3148 15.2657C71.0712 15.2657 69.2524 17.0901 69.2524 19.3405C69.2524 21.591 71.0712 23.4153 73.3148 23.4153Z" fill="#131F37"/>
<path d="M61.1277 32.1781C63.0382 32.1781 64.587 30.6246 64.587 28.7083C64.587 26.7919 63.0382 25.2384 61.1277 25.2384C59.2172 25.2384 57.6685 26.7919 57.6685 28.7083C57.6685 30.6246 59.2172 32.1781 61.1277 32.1781Z" fill="#131F37"/>
<path d="M71.9329 33.6485C73.8434 33.6485 75.3922 32.095 75.3922 30.1786C75.3922 28.2623 73.8434 26.7087 71.9329 26.7087C70.0224 26.7087 68.4736 28.2623 68.4736 30.1786C68.4736 32.095 70.0224 33.6485 71.9329 33.6485Z" fill="#131F37"/>
<path d="M80.5769 37.0343C82.4875 37.0343 84.0362 35.4808 84.0362 33.5645C84.0362 31.6481 82.4875 30.0946 80.5769 30.0946C78.6664 30.0946 77.1177 31.6481 77.1177 33.5645C77.1177 35.4808 78.6664 37.0343 80.5769 37.0343Z" fill="#131F37"/>
<path d="M68.7332 41.9745C70.4032 41.9745 71.7569 40.6166 71.7569 38.9416C71.7569 37.2665 70.4032 35.9086 68.7332 35.9086C67.0632 35.9086 65.7095 37.2665 65.7095 38.9416C65.7095 40.6166 67.0632 41.9745 68.7332 41.9745Z" fill="#131F37"/>
<path d="M57.928 40.4958C59.598 40.4958 60.9517 39.1379 60.9517 37.4628C60.9517 35.7877 59.598 34.4298 57.928 34.4298C56.2581 34.4298 54.9043 35.7877 54.9043 37.4628C54.9043 39.1379 56.2581 40.4958 57.928 40.4958Z" fill="#131F37"/>
<path d="M77.4695 45.352C79.1395 45.352 80.4932 43.9941 80.4932 42.319C80.4932 40.6439 79.1395 39.286 77.4695 39.286C75.7996 39.286 74.4458 40.6439 74.4458 42.319C74.4458 43.9941 75.7996 45.352 77.4695 45.352Z" fill="#131F37"/>
<path d="M64.4115 48.3093C65.8455 48.3093 67.008 47.1433 67.008 45.7048C67.008 44.2664 65.8455 43.1003 64.4115 43.1003C62.9775 43.1003 61.8149 44.2664 61.8149 45.7048C61.8149 47.1433 62.9775 48.3093 64.4115 48.3093Z" fill="#131F37"/>
<path d="M73.1473 51.6028C74.5814 51.6028 75.7439 50.4367 75.7439 48.9983C75.7439 47.5599 74.5814 46.3938 73.1473 46.3938C71.7133 46.3938 70.5508 47.5599 70.5508 48.9983C70.5508 50.4367 71.7133 51.6028 73.1473 51.6028Z" fill="#131F37"/>
<path d="M53.6898 46.7466C55.1239 46.7466 56.2864 45.5805 56.2864 44.1421C56.2864 42.7037 55.1239 41.5376 53.6898 41.5376C52.2558 41.5376 51.0933 42.7037 51.0933 44.1421C51.0933 45.5805 52.2558 46.7466 53.6898 46.7466Z" fill="#131F37"/>
<path d="M59.6537 52.5522C60.8472 52.5522 61.8147 51.5817 61.8147 50.3845C61.8147 49.1874 60.8472 48.2169 59.6537 48.2169C58.4602 48.2169 57.4927 49.1874 57.4927 50.3845C57.4927 51.5817 58.4602 52.5522 59.6537 52.5522Z" fill="#131F37"/>
<path d="M63.3725 58.5425C64.4226 58.5425 65.2739 57.6886 65.2739 56.6353C65.2739 55.582 64.4226 54.7281 63.3725 54.7281C62.3225 54.7281 61.4712 55.582 61.4712 56.6353C61.4712 57.6886 62.3225 58.5425 63.3725 58.5425Z" fill="#131F37"/>
<path d="M58.7908 59.7524C59.6513 59.7524 60.3488 59.0527 60.3488 58.1897C60.3488 57.3266 59.6513 56.627 58.7908 56.627C57.9304 56.627 57.2329 57.3266 57.2329 58.1897C57.2329 59.0527 57.9304 59.7524 58.7908 59.7524Z" fill="#131F37"/>
<path d="M54.7285 55.2406C55.7786 55.2406 56.6298 54.3867 56.6298 53.3334C56.6298 52.2801 55.7786 51.4263 54.7285 51.4263C53.6784 51.4263 52.8271 52.2801 52.8271 53.3334C52.8271 54.3867 53.6784 55.2406 54.7285 55.2406Z" fill="#131F37"/>
<path d="M48.8485 51.0818C50.042 51.0818 51.0095 50.1113 51.0095 48.9142C51.0095 47.7171 50.042 46.7466 48.8485 46.7466C47.655 46.7466 46.6875 47.7171 46.6875 48.9142C46.6875 50.1113 47.655 51.0818 48.8485 51.0818Z" fill="#131F37"/>
<path d="M48.765 34.7743C49.9585 34.7743 50.926 33.8038 50.926 32.6067C50.926 31.4096 49.9585 30.4391 48.765 30.4391C47.5715 30.4391 46.604 31.4096 46.604 32.6067C46.604 33.8038 47.5715 34.7743 48.765 34.7743Z" fill="#131F37"/>
<path d="M49.7114 27.1456C50.7615 27.1456 51.6128 26.2918 51.6128 25.2385C51.6128 24.1852 50.7615 23.3313 49.7114 23.3313C48.6613 23.3313 47.8101 24.1852 47.8101 25.2385C47.8101 26.2918 48.6613 27.1456 49.7114 27.1456Z" fill="#131F37"/>
<path d="M51.7889 20.9032C52.6493 20.9032 53.3468 20.2036 53.3468 19.3405C53.3468 18.4775 52.6493 17.7778 51.7889 17.7778C50.9285 17.7778 50.231 18.4775 50.231 19.3405C50.231 20.2036 50.9285 20.9032 51.7889 20.9032Z" fill="#131F37"/>
<path d="M48.1621 17.9542C49.2122 17.9542 50.0634 17.1004 50.0634 16.0471C50.0634 14.9938 49.2122 14.1399 48.1621 14.1399C47.112 14.1399 46.2607 14.9938 46.2607 16.0471C46.2607 17.1004 47.112 17.9542 48.1621 17.9542Z" fill="#131F37"/>
<path d="M68.306 55.8539C69.4995 55.8539 70.467 54.8834 70.467 53.6863C70.467 52.4892 69.4995 51.5187 68.306 51.5187C67.1125 51.5187 66.145 52.4892 66.145 53.6863C66.145 54.8834 67.1125 55.8539 68.306 55.8539Z" fill="#131F37"/>
<path d="M43.2284 15.4337C44.4219 15.4337 45.3894 14.4633 45.3894 13.2661C45.3894 12.069 44.4219 11.0985 43.2284 11.0985C42.0349 11.0985 41.0674 12.069 41.0674 13.2661C41.0674 14.4633 42.0349 15.4337 43.2284 15.4337Z" fill="#131F37"/>
<path d="M44.7025 24.6252C45.896 24.6252 46.8635 23.6547 46.8635 22.4575C46.8635 21.2604 45.896 20.2899 44.7025 20.2899C43.509 20.2899 42.5415 21.2604 42.5415 22.4575C42.5415 23.6547 43.509 24.6252 44.7025 24.6252Z" fill="#131F37"/>
<path d="M42.2821 33.3881C43.7161 33.3881 44.8786 32.222 44.8786 30.7836C44.8786 29.3452 43.7161 28.1791 42.2821 28.1791C40.8481 28.1791 39.6855 29.3452 39.6855 30.7836C39.6855 32.222 40.8481 33.3881 42.2821 33.3881Z" fill="#131F37"/>
<path d="M34.4085 33.388C36.0785 33.388 37.4322 32.0301 37.4322 30.355C37.4322 28.6799 36.0785 27.322 34.4085 27.322C32.7385 27.322 31.3848 28.6799 31.3848 30.355C31.3848 32.0301 32.7385 33.388 34.4085 33.388Z" fill="#131F37"/>
<path d="M25.2454 35.4716C27.1559 35.4716 28.7047 33.9181 28.7047 32.0017C28.7047 30.0854 27.1559 28.5319 25.2454 28.5319C23.3349 28.5319 21.7861 30.0854 21.7861 32.0017C21.7861 33.9181 23.3349 35.4716 25.2454 35.4716Z" fill="#131F37"/>
<path d="M15.2191 40.4118C17.4627 40.4118 19.2814 38.5874 19.2814 36.337C19.2814 34.0865 17.4627 32.2622 15.2191 32.2622C12.9755 32.2622 11.1567 34.0865 11.1567 36.337C11.1567 38.5874 12.9755 40.4118 15.2191 40.4118Z" fill="#131F37"/>
<path d="M4.84131 48.7378C7.5151 48.7378 9.68263 46.5636 9.68263 43.8816C9.68263 41.1997 7.5151 39.0255 4.84131 39.0255C2.16753 39.0255 0 41.1997 0 43.8816C0 46.5636 2.16753 48.7378 4.84131 48.7378Z" fill="#131F37"/>
<path d="M11.1566 30.2626C13.4002 30.2626 15.2189 28.4383 15.2189 26.1878C15.2189 23.9374 13.4002 22.113 11.1566 22.113C8.91301 22.113 7.09424 23.9374 7.09424 26.1878C7.09424 28.4383 8.91301 30.2626 11.1566 30.2626Z" fill="#131F37"/>
<path d="M21.1829 25.3225C23.0934 25.3225 24.6422 23.769 24.6422 21.8527C24.6422 19.9363 23.0934 18.3828 21.1829 18.3828C19.2724 18.3828 17.7236 19.9363 17.7236 21.8527C17.7236 23.769 19.2724 25.3225 21.1829 25.3225Z" fill="#131F37"/>
<path d="M19.7171 16.1311C21.6276 16.1311 23.1764 14.5776 23.1764 12.6613C23.1764 10.7449 21.6276 9.19141 19.7171 9.19141C17.8066 9.19141 16.2578 10.7449 16.2578 12.6613C16.2578 14.5776 17.8066 16.1311 19.7171 16.1311Z" fill="#131F37"/>
<path d="M28.8802 14.0475C30.5501 14.0475 31.9039 12.6896 31.9039 11.0146C31.9039 9.33948 30.5501 7.98157 28.8802 7.98157C27.2102 7.98157 25.8564 9.33948 25.8564 11.0146C25.8564 12.6896 27.2102 14.0475 28.8802 14.0475Z" fill="#131F37"/>
<path d="M36.7455 14.0559C38.1795 14.0559 39.342 12.8899 39.342 11.4514C39.342 10.013 38.1795 8.84692 36.7455 8.84692C35.3114 8.84692 34.1489 10.013 34.1489 11.4514C34.1489 12.8899 35.3114 14.0559 36.7455 14.0559Z" fill="#131F37"/>
<path d="M38.2113 23.2473C39.6453 23.2473 40.8078 22.0813 40.8078 20.6428C40.8078 19.2044 39.6453 18.0383 38.2113 18.0383C36.7773 18.0383 35.6147 19.2044 35.6147 20.6428C35.6147 22.0813 36.7773 23.2473 38.2113 23.2473Z" fill="#131F37"/>
<path d="M30.346 23.3229C32.016 23.3229 33.3697 21.965 33.3697 20.2899C33.3697 18.6149 32.016 17.257 30.346 17.257C28.676 17.257 27.3223 18.6149 27.3223 20.2899C27.3223 21.965 28.676 23.3229 30.346 23.3229Z" fill="#131F37"/>
<path d="M21.786 46.4021C22.6464 46.4021 23.3439 45.7025 23.3439 44.8394C23.3439 43.9764 22.6464 43.2767 21.786 43.2767C20.9255 43.2767 20.228 43.9764 20.228 44.8394C20.228 45.7025 20.9255 46.4021 21.786 46.4021Z" fill="#131F37"/>
<path d="M28.0093 45.6124C29.0593 45.6124 29.9106 44.7586 29.9106 43.7053C29.9106 42.652 29.0593 41.7981 28.0093 41.7981C26.9592 41.7981 26.1079 42.652 26.1079 43.7053C26.1079 44.7586 26.9592 45.6124 28.0093 45.6124Z" fill="#131F37"/>
<path d="M34.8441 43.0163C36.0376 43.0163 37.0051 42.0458 37.0051 40.8486C37.0051 39.6515 36.0376 38.681 34.8441 38.681C33.6506 38.681 32.6831 39.6515 32.6831 40.8486C32.6831 42.0458 33.6506 43.0163 34.8441 43.0163Z" fill="#131F37"/>
<path d="M36.4857 49.9561C37.9197 49.9561 39.0823 48.79 39.0823 47.3516C39.0823 45.9131 37.9197 44.7471 36.4857 44.7471C35.0517 44.7471 33.8892 45.9131 33.8892 47.3516C33.8892 48.79 35.0517 49.9561 36.4857 49.9561Z" fill="#131F37"/>
<path d="M28.1849 51.6027C29.3784 51.6027 30.3459 50.6322 30.3459 49.4351C30.3459 48.2379 29.3784 47.2675 28.1849 47.2675C26.9914 47.2675 26.0239 48.2379 26.0239 49.4351C26.0239 50.6322 26.9914 51.6027 28.1849 51.6027Z" fill="#131F37"/>
<path d="M20.8393 51.5103C21.8894 51.5103 22.7407 50.6564 22.7407 49.6031C22.7407 48.5498 21.8894 47.6959 20.8393 47.6959C19.7892 47.6959 18.938 48.5498 18.938 49.6031C18.938 50.6564 19.7892 51.5103 20.8393 51.5103Z" fill="#131F37"/>
<path d="M20.9232 57.5006C22.1167 57.5006 23.0842 56.5302 23.0842 55.333C23.0842 54.1359 22.1167 53.1654 20.9232 53.1654C19.7297 53.1654 18.7622 54.1359 18.7622 55.333C18.7622 56.5302 19.7297 57.5006 20.9232 57.5006Z" fill="#131F37"/>
<path d="M29.743 58.6265C31.1771 58.6265 32.3396 57.4604 32.3396 56.022C32.3396 54.5836 31.1771 53.4175 29.743 53.4175C28.309 53.4175 27.1465 54.5836 27.1465 56.022C27.1465 57.4604 28.309 58.6265 29.743 58.6265Z" fill="#131F37"/>
<path d="M40.0286 57.4922C41.6986 57.4922 43.0523 56.1343 43.0523 54.4593C43.0523 52.7842 41.6986 51.4263 40.0286 51.4263C38.3587 51.4263 37.0049 52.7842 37.0049 54.4593C37.0049 56.1343 38.3587 57.4922 40.0286 57.4922Z" fill="#131F37"/>
<path d="M46.0848 65.0453C47.9953 65.0453 49.544 63.4918 49.544 61.5755C49.544 59.6591 47.9953 58.1056 46.0848 58.1056C44.1743 58.1056 42.6255 59.6591 42.6255 61.5755C42.6255 63.4918 44.1743 65.0453 46.0848 65.0453Z" fill="#131F37"/>
<path d="M33.3699 66.0788C35.0399 66.0788 36.3936 64.7209 36.3936 63.0458C36.3936 61.3707 35.0399 60.0128 33.3699 60.0128C31.7 60.0128 30.3462 61.3707 30.3462 63.0458C30.3462 64.7209 31.7 66.0788 33.3699 66.0788Z" fill="#131F37"/>
<path d="M26.2 71.9766C27.87 71.9766 29.2237 70.6187 29.2237 68.9436C29.2237 67.2686 27.87 65.9106 26.2 65.9106C24.53 65.9106 23.1763 67.2686 23.1763 68.9436C23.1763 70.6187 24.53 71.9766 26.2 71.9766Z" fill="#131F37"/>
<path d="M32.1639 79.6137C34.0744 79.6137 35.6231 78.0602 35.6231 76.1438C35.6231 74.2275 34.0744 72.674 32.1639 72.674C30.2534 72.674 28.7046 74.2275 28.7046 76.1438C28.7046 78.0602 30.2534 79.6137 32.1639 79.6137Z" fill="#131F37"/>
<path d="M48.0697 81C50.3132 81 52.132 79.1757 52.132 76.9252C52.132 74.6748 50.3132 72.8505 48.0697 72.8505C45.8261 72.8505 44.0073 74.6748 44.0073 76.9252C44.0073 79.1757 45.8261 81 48.0697 81Z" fill="#131F37"/>
<path d="M39.3421 73.7158C41.2526 73.7158 42.8014 72.1623 42.8014 70.246C42.8014 68.3296 41.2526 66.7761 39.3421 66.7761C37.4316 66.7761 35.8828 68.3296 35.8828 70.246C35.8828 72.1623 37.4316 73.7158 39.3421 73.7158Z" fill="#131F37"/>
<path d="M54.7288 72.3295C56.9724 72.3295 58.7912 70.5052 58.7912 68.2547C58.7912 66.0043 56.9724 64.1799 54.7288 64.1799C52.4853 64.1799 50.6665 66.0043 50.6665 68.2547C50.6665 70.5052 52.4853 72.3295 54.7288 72.3295Z" fill="#131F37"/>
<path d="M22.5648 64.5244C23.9989 64.5244 25.1614 63.3584 25.1614 61.9199C25.1614 60.4815 23.9989 59.3154 22.5648 59.3154C21.1308 59.3154 19.9683 60.4815 19.9683 61.9199C19.9683 63.3584 21.1308 64.5244 22.5648 64.5244Z" fill="#131F37"/>
</svg>
