<svg width="32" height="32" viewBox="0 0 60 60" fill="none" xmlns="http://www.w3.org/2000/svg">
<mask id="mask0_88_519" style="mask-type:alpha" maskUnits="userSpaceOnUse" x="0" y="0" width="60" height="60">
<rect width="60" height="60" rx="10" fill="#D9D9D9"/>
</mask>
<g mask="url(#mask0_88_519)">
<path d="M30 54C43.2548 54 54 43.2548 54 30C54 16.7452 43.2548 6 30 6C16.7452 6 6 16.7452 6 30C6 43.2548 16.7452 54 30 54Z" fill="#FF0420"/>
<path d="M22.9968 36.3648C21.7481 36.418 20.5158 36.0641 19.4857 35.3564C19.0407 35.0165 18.6851 34.5733 18.4499 34.0651C18.2146 33.5569 18.1067 32.9991 18.1354 32.4398C18.1409 32.1139 18.171 31.7889 18.2255 31.4676C18.3816 30.602 18.6036 29.5637 18.8916 28.3527C19.7079 25.0517 21.8144 23.4012 25.2111 23.4012C26.0624 23.3873 26.9078 23.5466 27.6957 23.8694C28.3951 24.1435 28.9968 24.62 29.4241 25.2378C29.8549 25.8744 30.0751 26.6302 30.0536 27.3986C30.0474 27.7184 30.0173 28.0374 29.9635 28.3527C29.7833 29.421 29.5673 30.4593 29.3155 31.4676C28.8958 33.1119 28.1696 34.3422 27.137 35.1585C26.1054 35.9627 24.7253 36.3648 22.9968 36.3648ZM23.249 33.772C23.8726 33.7892 24.481 33.5779 24.9597 33.1779C25.4887 32.6981 25.8486 32.0603 25.9858 31.3594C26.262 30.2315 26.4718 29.2473 26.6153 28.4066C26.6636 28.1513 26.6877 27.8921 26.6873 27.6323C26.6873 26.5399 26.1172 25.9938 24.977 25.994C24.3483 25.9789 23.7351 26.1897 23.2486 26.5881C22.7293 27.073 22.3764 27.7094 22.2402 28.4066C22.0241 29.2108 21.8081 30.1951 21.5922 31.3594C21.5433 31.6085 21.5192 31.8618 21.5202 32.1156C21.5202 33.2199 22.0965 33.772 23.249 33.772Z" fill="white"/>
<path d="M30.8836 36.1849C30.8264 36.1883 30.7692 36.1787 30.7162 36.1569C30.6632 36.1351 30.6158 36.1017 30.5775 36.059C30.5176 35.9623 30.4982 35.8458 30.5236 35.7348L33.0082 24.0315C33.0302 23.9024 33.1005 23.7864 33.2049 23.7073C33.3014 23.6277 33.4221 23.5833 33.5472 23.5814H38.3366C39.4642 23.5261 40.5819 23.8149 41.5415 24.4096C41.9361 24.668 42.2565 25.0248 42.4712 25.4447C42.6859 25.8647 42.7875 26.3333 42.7659 26.8045C42.7642 27.1196 42.7279 27.4336 42.6577 27.7409C42.4592 28.954 41.8097 30.0473 40.8393 30.8019C39.9391 31.4621 38.7027 31.7922 37.1303 31.7922H34.7L33.8718 35.7352C33.8497 35.8644 33.7794 35.9803 33.6751 36.0594C33.5787 36.139 33.4581 36.1834 33.3332 36.1853L30.8836 36.1849ZM37.2573 29.3068C37.7291 29.3172 38.1911 29.1717 38.5718 28.8929C38.9635 28.6052 39.2333 28.1813 39.328 27.7047C39.3615 27.5265 39.3795 27.3458 39.3819 27.1645C39.3922 27.018 39.3701 26.8711 39.3172 26.7342C39.2643 26.5972 39.1819 26.4736 39.0758 26.3721C38.7754 26.1502 38.4034 26.0476 38.0316 26.0841H35.8713L35.1871 29.3068H37.2573Z" fill="white"/>
</g>
</svg>
