<svg width="2155" height="2701" viewBox="0 0 2155 2701" fill="none" xmlns="http://www.w3.org/2000/svg">
<path d="M1346.73 1080.28C1346.73 1229.44 1226.16 1350.38 1077.36 1350.38V1620.48C1374.83 1620.48 1616.1 1378.61 1616.1 1080.28C1616.1 781.953 1374.83 540.08 1077.36 540.08C979.295 540.08 887.193 566.36 807.988 612.471C646.902 705.79 538.618 880.381 538.618 1080.4V2430.9L807.988 2701V1080.4C807.988 931.238 928.56 810.301 1077.36 810.301C1226.16 810.301 1346.73 931.238 1346.73 1080.4V1080.28Z" fill="black"/>
<path d="M1077.48 0C881.231 0 697.271 52.6816 538.74 144.662C437.27 203.427 346.385 278.252 269.37 365.851C101.713 556.26 0 806.528 0 1080.4V1890.7L269.37 2160.8V1080.4C269.37 840.473 373.395 624.88 538.74 476.446C616.485 406.853 707.735 351.86 808.11 316.455C892.303 286.403 983.066 270.1 1077.48 270.1C1523.75 270.1 1885.47 632.91 1885.47 1080.4C1885.47 1527.89 1523.63 1890.7 1077.48 1890.7V2160.8C1672.55 2160.8 2154.84 1677.05 2154.84 1080.4C2154.84 483.746 1672.55 0 1077.48 0Z" fill="black"/>
</svg>
