<svg width="30" height="30" viewBox="0 0 30 30" fill="none" xmlns="http://www.w3.org/2000/svg">
<g clip-path="url(#clip0_12508_17848)">
<path d="M3.17271 30H3.83478C3.95516 30 4.07553 29.9398 4.11566 29.8395C9.11131 17.1196 14.5483 10.8199 17.959 7.04804C18.0995 6.88754 18.0393 6.76716 17.8387 6.76716H11.7395C11.5189 6.76716 11.3323 6.85544 11.1778 7.04804L6.80408 12.465C6.16207 13.2675 6.00157 14.0099 6.00157 15.0732V20.6105C4.57711 24.603 3.67428 27.3115 3.0122 29.7592C2.97208 29.9157 3.03227 30 3.17271 30ZM25.1817 0.80849C24.2387 -0.194653 19.9854 -0.234779 18.0192 0.52761C17.6099 0.686106 17.2167 0.954949 17.0361 1.10943C15.2305 2.65427 14.0267 3.87811 12.8831 5.08188C12.7427 5.22232 12.8029 5.36276 13.0035 5.36276H19.7647C20.3866 5.36276 20.7478 5.72389 20.7478 6.34584V13.9697C20.7478 14.1704 20.9083 14.2305 21.0287 14.05L25.1014 8.73332C25.7635 7.87062 25.9641 7.6098 26.1447 6.40603C26.3854 4.6405 26.245 1.93201 25.1817 0.80849ZM16.4543 21.0319L19.2431 16.4375C19.3032 16.3171 19.3233 16.1766 19.3233 16.0763V8.41232C19.3233 8.21169 19.1829 8.13144 19.0424 8.29194C14.8493 12.9666 11.579 17.882 8.54955 23.8005C8.47331 23.949 8.56962 24.0814 8.75018 24.0212L15.0098 22.0952C15.716 21.8785 16.1133 21.5936 16.4543 21.0319Z" fill="white"/>
</g>
<defs>
<clipPath id="clip0_12508_17848">
<rect width="23.2468" height="30" fill="white" transform="translate(3)"/>
</clipPath>
</defs>
</svg>
