<svg width="186" height="183" viewBox="0 0 186 183" fill="none" xmlns="http://www.w3.org/2000/svg">
<path d="M172.6 124V16.5C172.4 7.49999 165.3 0.299988 156.3 0.299988H44.1C19.9 0.699988 0.400024 20.5 0.400024 44.8C0.400024 53 2.60002 60 6.00002 66.2C8.80002 71.3 13.3 76.1 17.7 79.8C18.9 80.8 18.3 80.4 22.1 82.8C27.4 86 33.4 87.6 33.4 87.6V151.9C33.5 154.9 33.9 157.9 34.6 160.6C37.1 169.6 43.4 176.6 51.9 180C55.5 181.4 59.5 182.4 63.8 182.4L153.4 182.7C171.3 182.7 185.8 168.2 185.8 150.3C185.8 139.4 180.6 129.9 172.6 124Z" fill="#FFEEDA"/>
<path d="M174.7 150.8C174.3 162.3 164.9 171.5 153.4 171.5L91.7001 171.3C96.6001 165.6 99.6001 158.2 99.6001 150.2C99.6001 137.5 92.0001 128.8 92.0001 128.8H153.4C165.2 128.8 174.7 138.4 174.7 150.2V150.8Z" fill="#EBC28E"/>
<path d="M23.4001 70.5C16.3001 63.8 11.3001 55.1 11.3001 44.7V43.6C11.9001 26 26.4 11.8 44 11.2H156.2C159.1 11.3 161.5 13.4 161.5 16.4V111.3C164.1 111.8 165.3 112.1 167.8 113C169.7 113.7 172.5 115.3 172.5 115.3V16.4C172.3 7.40001 165.2 0.200012 156.2 0.200012H44C19.8 0.600012 0.300049 20.4 0.300049 44.7C0.300049 58.8 6.70005 70.9 17.3001 79.4C18.0001 80 18.7 80.7 20.6 80.7C23.9 80.7 26.2 78.1 26.1 75.2C26 72.8 25.0001 71.9 23.4001 70.5Z" fill="#190602"/>
<path d="M153.4 117.7H65.4C59.5 117.7 54.7 122.6 54.7 128.5V141.1C54.9 146.9 59.9 152 65.7 152H72.2V141.1H65.7V128.7C65.7 128.7 67.3 128.7 69.3 128.7C80.4 128.7 88.6001 139 88.6001 150.1C88.6001 159.9 79.7 172.4 64.8 171.4C51.5 170.5 44.4 158.7 44.4 150.1V42.8C44.4 38 40.5 34 35.6 34H26.8V45H33.3V150.1C33 171.5 48.5 182.3 64.7 182.3L153.4 182.6C171.3 182.6 185.8 168.1 185.8 150.2C185.8 132.3 171.3 117.7 153.4 117.7ZM174.7 150.8C174.3 162.3 164.9 171.5 153.4 171.5L91.7 171.3C96.6 165.6 99.6001 158.2 99.6001 150.2C99.6001 137.5 92 128.8 92 128.8H153.4C165.2 128.8 174.7 138.4 174.7 150.2V150.8Z" fill="#190602"/>
<path d="M130.4 46.9H63.4V36H130.4C133.1 36 135.2 38.2 135.2 40.8V42.1C135.2 44.8 133 46.9 130.4 46.9Z" fill="#190602"/>
<path d="M130.4 98.6H63.4V87.7H130.4C133.1 87.7 135.2 89.9 135.2 92.5V93.8C135.2 96.4 133 98.6 130.4 98.6Z" fill="#190602"/>
<path d="M142 72.8H63.3V61.9H142C144.7 61.9 146.8 64.1 146.8 66.7V68C146.9 70.6 144.7 72.8 142 72.8Z" fill="#190602"/>
</svg>
