<svg width="256" height="256" viewBox="0 0 256 256" fill="none" xmlns="http://www.w3.org/2000/svg">
<path d="M217.984 122.772C215.288 120.713 212.249 119.096 208.966 118.042L71.6564 73.4158C68.5931 72.4355 65.4563 71.9209 62.2704 71.9209C59.0846 71.9209 55.9723 72.4355 53.007 73.3913C57.4672 67.4362 62.5155 61.9223 68.1029 56.874C86.9729 39.8911 101.579 32 114.077 32C117.508 32 120.914 32.5636 124.468 33.7154C159.512 45.0864 184.386 56.8005 200.119 79.959C208.574 92.3592 214.431 106.107 217.567 120.811L217.984 122.772Z" fill="white"/>
<path d="M209.438 181.123C182.065 205.776 159.494 221.461 131.557 223.519C128.763 223.715 125.896 223.838 123.078 223.838C110.972 223.838 98.9882 221.926 87.4702 218.201L85.5833 217.589C88.7201 216.265 91.6118 214.452 94.1605 212.148L195.102 121.254L206.718 125.028C214.511 127.552 220.393 134.095 222.108 142.109C225.147 156.396 220.295 171.345 209.438 181.123Z" fill="white"/>
<path d="M98.3278 198.497L89.2604 206.682C85.0208 210.481 79.5559 212.588 73.8459 212.588C71.4443 212.588 69.0426 212.196 66.739 211.461C52.8684 206.952 42.3552 195.262 39.3164 180.999C31.6704 144.951 29.3668 117.552 41.571 92.2863C45.394 84.3708 53.5056 79.2734 62.2789 79.2734C64.6805 79.2734 67.0821 79.6655 69.3857 80.4007L73.5028 81.7486L98.3278 198.497Z" fill="white"/>
</svg>
