<svg width="32" height="32" viewBox="0 0 33 32" fill="none" xmlns="http://www.w3.org/2000/svg">
<path fill-rule="evenodd" clip-rule="evenodd" d="M22.9022 13.2607L22.9018 13.2619C24.0033 14.6431 24.6616 16.3924 24.6616 18.2951C24.6616 20.2261 23.9836 21.9991 22.8524 23.3897L22.7549 23.5094L22.7291 23.3572C22.7071 23.2278 22.6813 23.0972 22.6514 22.9655C22.0852 20.4781 20.2407 18.3451 17.2048 16.618C15.1547 15.4549 13.9813 14.0545 13.6732 12.4633C13.4742 11.4344 13.6221 10.4009 13.908 9.51567C14.1938 8.63077 14.6189 7.88935 14.9801 7.44298L16.1613 5.99863C16.3685 5.74538 16.756 5.74538 16.9631 5.99863L22.9022 13.2607ZM24.7702 11.818L16.8548 2.1386C16.7036 1.9538 16.4207 1.9538 16.2696 2.1386L8.35387 11.8175L8.32833 11.85C6.87169 13.6575 6 15.9546 6 18.4552C6 24.2788 10.7287 29 16.5622 29C22.3956 29 27.1243 24.2788 27.1243 18.4552C27.1243 15.9547 26.2526 13.6575 24.796 11.85L24.7702 11.818ZM10.2479 13.2295L10.9562 12.3633L10.9776 12.5232C10.9945 12.6498 11.0151 12.7771 11.0395 12.9049C11.4976 15.3084 13.1341 17.3127 15.8701 18.8649C18.2484 20.2184 19.6331 21.775 20.0321 23.482C20.1985 24.1945 20.2283 24.8954 20.1562 25.5082L20.1517 25.5461L20.1174 25.5629C19.0439 26.0873 17.8372 26.3816 16.5619 26.3816C12.0887 26.3816 8.46231 22.7613 8.46231 18.2951C8.46231 16.3776 9.13082 14.6156 10.2479 13.2295Z" fill="#F7F7F8"/>
</svg>
