<svg width="205px" height="206px" viewBox="0 0 205 206" version="1.1" xmlns="http://www.w3.org/2000/svg" xmlns:xlink="http://www.w3.org/1999/xlink">
    <title>660452e427265e6b4b893d4c_zircuit-logo</title>
    <g id="Page-1" stroke="none" stroke-width="1" fill="none" fill-rule="evenodd">
        <g id="660452e427265e6b4b893d4c_zircuit-logo" fill="#9E9E9E">
            <path d="M0,103.00515 C0,46.1157394 45.8929034,0 102.497751,0 C159.112044,0 205.00514,46.1157394 205,103 C205,123.149375 199.240393,141.944944 189.290228,157.817244 C186.54664,162.190237 183.490784,166.341138 180.141936,170.242906 L102.633324,92.3581688 L35.9830248,159.327481 L24.9788593,170.385175 C21.6200522,166.493062 18.5538516,162.347312 15.8103278,157.979469 C5.79460576,142.076912 0,123.220187 0,103.00515 Z M177.539703,143.141031 L178.477792,141.256131 L178.482932,141.261281 C184.363335,129.473575 187.46995,116.241938 187.46995,103.00515 C187.46995,55.9267469 149.353352,17.62536 102.502249,17.62536 C55.6514027,17.62536 17.5401375,55.9267469 17.5401375,103.00515 C17.5401375,116.31275 20.677016,129.600394 26.6128041,141.433162 L27.5559045,143.308406 L102.633324,67.8660562 L177.539703,143.141031 Z M102.501606,206 C128.020188,206 151.365102,196.630219 169.308297,181.122925 L169.308297,181.117775 L102.637822,114.123356 L35.8408979,181.239444 C53.7592908,196.680431 76.9830248,206 102.501606,206 Z" id="Shape"></path>
        </g>
    </g>
</svg>